<?xml version="1.0" encoding="utf-8"?>
<!-- Generator: Adobe Illustrator 25.3.1, SVG Export Plug-In . SVG Version: 6.00 Build 0)  -->
<svg version="1.1" id="Camada_1" xmlns="http://www.w3.org/2000/svg" xmlns:xlink="http://www.w3.org/1999/xlink" x="0px" y="0px"
	 viewBox="0 0 500 500" style="enable-background:new 0 0 500 500;" xml:space="preserve">
<style type="text/css">
	.st0{fill:#FF4471;fill-opacity:0.5;}
	.st1{fill:#FF8744;fill-opacity:0.75;}
	.st2{fill:#79E5FD;fill-opacity:0.25;}
	.st3{fill:#383838;}
</style>
<g>
	<g>
		<path class="st0" d="M475,173L270.7,290.9V55L475,173z"/>
		<path class="st1" d="M234,165.6l-9.8,235.7L25,275L234,165.6z"/>
		<path class="st2" d="M369,445l-45.7-145.9l149.2,33.4L369,445z"/>
	</g>
	<path class="st3" d="M69.4,400.7v-46.9h16.4c5.7,0,10,1.1,13,3.3c2.9,2.2,4.4,5.3,4.4,9.6c0,2.3-0.6,4.4-1.8,6.1
		c-1.2,1.7-2.9,3-5,3.8c2.4,0.6,4.3,1.8,5.7,3.7c1.4,1.8,2.1,4,2.1,6.7c0,4.5-1.4,8-4.3,10.3c-2.9,2.3-7,3.5-12.3,3.5L69.4,400.7
		L69.4,400.7z M79.1,380.3V393h8.2c2.2,0,4.1-0.5,5.3-1.6c1.3-1.1,1.9-2.6,1.9-4.5c0-4.3-2.2-6.5-6.7-6.5L79.1,380.3L79.1,380.3z
		 M79.1,373.5h7.1c4.9-0.1,7.3-2,7.3-5.9c0-2.1-0.6-3.7-1.9-4.6c-1.2-1-3.1-1.4-5.8-1.4h-6.8V373.5z M139.8,380.3h-18.5v12.6H143
		v7.8h-31.4v-46.9h31.4v7.8h-21.7v11.2h18.5V380.3z M161.3,353.8l12.1,34l12-34h12.7v46.9h-9.7v-12.8l1-22.1l-12.7,35h-6.6l-12.6-35
		l1,22.1v12.8h-9.7v-46.9H161.3z M240.3,389l10.7-35.2h10.7l-16.4,46.9h-10L219,353.8h10.7L240.3,389z M276.4,400.7h-9.7v-46.9h9.7
		V400.7z M323.5,400.7h-9.7L295,369.8v30.8h-9.7v-46.9h9.7l18.8,30.9v-30.9h9.7V400.7z M331.9,400.7v-46.9h14.4
		c4.1,0,7.8,0.9,11,2.8c3.3,1.9,5.8,4.5,7.7,8c1.8,3.4,2.8,7.3,2.8,11.6v2.2c0,4.3-0.9,8.2-2.7,11.6c-1.8,3.4-4.3,6-7.6,7.9
		c-3.3,1.9-7,2.8-11,2.8H331.9z M341.6,361.6v31.3h4.7c3.8,0,6.7-1.2,8.7-3.7c2-2.5,3-6,3.1-10.6v-2.5c0-4.8-1-8.4-3-10.8
		c-1.9-2.5-4.9-3.7-8.7-3.7L341.6,361.6L341.6,361.6z M413.4,378.3c0,4.6-0.8,8.7-2.5,12.1c-1.7,3.5-4,6.2-7.1,8
		c-3,1.9-6.5,2.8-10.4,2.8s-7.3-0.9-10.4-2.8s-5.4-4.5-7-8c-1.7-3.5-2.6-7.5-2.6-12v-2.3c0-4.6,0.8-8.7,2.5-12.1
		c1.6-3.5,4-6.2,7-8.1c3.1-1.9,6.5-2.8,10.4-2.8c3.9,0,7.4,1,10.4,2.8c3.1,1.9,5.4,4.6,7.1,8.1c1.6,3.5,2.6,7.6,2.6,12.1
		L413.4,378.3L413.4,378.3z M403.6,376.2c0-4.9-0.9-8.6-2.6-11.2c-1.7-2.5-4.3-3.8-7.6-3.8c-3.2,0-5.8,1.3-7.5,3.8
		c-1.7,2.5-2.6,6.2-2.7,11.1v2.2c0,4.8,0.9,8.5,2.6,11.2c1.7,2.6,4.3,4,7.6,4c3.2,0,5.7-1.3,7.5-3.8c1.7-2.5,2.6-6.3,2.6-11.2
		L403.6,376.2L403.6,376.2z M429.3,386.3h-7.7l-1.1-32.5h9.9L429.3,386.3z M425.4,391.4c1.6,0,2.9,0.5,3.8,1.3
		c1,0.9,1.4,2.1,1.4,3.5c0,1.4-0.4,2.6-1.4,3.5c-1,0.9-2.2,1.3-3.8,1.3s-2.8-0.5-3.8-1.3c-1-0.9-1.4-2.1-1.4-3.5
		c0-1.4,0.4-2.6,1.4-3.5C422.6,391.9,423.8,391.4,425.4,391.4z"/>
</g>
</svg>
