<?xml version="1.0" encoding="utf-8"?>
<!-- Generator: Adobe Illustrator 25.3.1, SVG Export Plug-In . SVG Version: 6.00 Build 0)  -->
<svg version="1.1" id="Camada_1" xmlns="http://www.w3.org/2000/svg" xmlns:xlink="http://www.w3.org/1999/xlink" x="0px" y="0px"
	 viewBox="0 0 500 500" style="enable-background:new 0 0 500 500;" xml:space="preserve">
<style type="text/css">
	.st0{fill:#5A5A5A;}
	.st1{fill:#FFFFFF;}
</style>
<g>
	<path class="st0" d="M209,184.4c-11-27.4-37.8-46.8-69.2-46.8h-1.6l-15.8,1.1l-15.2-1.1H79.6l-14.8,2.1l-16.2-2.1H42
		c-9.5,25.4-15.2,52.7-16.4,81.2h107.5v69.3c0,41.1,33.4,74.4,74.4,74.4h205.8v-81.2h-40.5l-15.4,3.4l-15.4-3.4h-27.9l-15.4,2.8
		l-15.4-2.8h-27.9l-15.4,2l-15.4-2h-10.3v-11.8l-6.6-15.4l6.6-15.4v-23.5C214.4,215.3,212.4,192.9,209,184.4z"/>
	<path class="st0" d="M372.9,281.3l-15.4,3.4l-15.4-3.4h-27.9l-15.4,2.8l-15.4-2.8h-27.9l-15.4,2l-15.4-2h-10.3l-55,63.3
		c13,11.1,29.9,17.8,48.2,17.8h205.8v-81.2L372.9,281.3L372.9,281.3z"/>
	<path class="st1" d="M412.6,281.3h61.8v81.2h-61.8V281.3z"/>
	<path class="st1" d="M342.1,281.3H373V346h-30.9V281.3z"/>
	<path class="st1" d="M224.8,281.3h30.9V346h-30.9V281.3z"/>
	<path class="st1" d="M283.4,281.3h30.9v43.9h-30.9V281.3z"/>
	<path class="st1" d="M48.7,137.5h30.9v64.7H48.7C48.7,202.2,48.7,137.5,48.7,137.5z"/>
	<path class="st1" d="M107.4,137.5h30.9v43.9h-30.9C107.4,181.5,107.4,137.5,107.4,137.5z"/>
	<path class="st1" d="M214.4,212c0-9.8-1.9-19-5.3-27.6h-58.7v30.9h64V212L214.4,212z"/>
	<path class="st1" d="M214.4,238.8v30.9h-43.3v-30.9L214.4,238.8L214.4,238.8z"/>
</g>
</svg>
