<?xml version="1.0" encoding="utf-8"?>
<!-- Generator: Adobe Illustrator 25.3.1, SVG Export Plug-In . SVG Version: 6.00 Build 0)  -->
<svg version="1.1" id="Camada_1" xmlns="http://www.w3.org/2000/svg" xmlns:xlink="http://www.w3.org/1999/xlink" x="0px" y="0px"
	 viewBox="0 0 500 500" style="enable-background:new 0 0 500 500;" xml:space="preserve">
<style type="text/css">
	.st0{fill:#FF8744;}
	.st1{fill:#5A5A5A;}
</style>
<g>
	<path class="st0" d="M413.4,281.3v81.2H207.7c-0.6,0-1.1,0-1.7,0c-1.1,0-2.3-0.1-3.4-0.2c-1.1-0.1-2.3-0.2-3.4-0.3
		c-0.5-0.1-0.9-0.1-1.4-0.2s-0.9-0.1-1.4-0.2c-2.2-0.3-4.3-0.8-6.5-1.3c-0.4-0.1-0.8-0.2-1.3-0.3c-0.8-0.2-1.5-0.4-2.3-0.6
		c-30.8-9.1-53.3-37.6-53.3-71.3v-69.3H25.5c1.1-28.4,6.8-55.8,16.4-81.2h6.7h0.1v64.7h30.9v-64.7h27.7h0.1c0.1,2.1,0.1,43.8,0,43.8
		h30.9v-43.8h1.5c31.3,0,58.2,19.5,69.1,46.8h-58.6v30.9h64v23.4h-43.2v30.9h43.2v11.7h10.3V346h30.9v-64.8h27.8v43.9h30.9v-43.9
		h27.8V346h30.9v-64.8L413.4,281.3L413.4,281.3z"/>
	<path class="st0" d="M413.5,281.3v81.2H207.7c-0.6,0-1.1,0-1.7,0c-1.1,0-2.3-0.1-3.4-0.2c-1.1-0.1-2.3-0.2-3.4-0.3
		c-0.5-0.1-0.9-0.1-1.4-0.2s-0.9-0.1-1.4-0.2c-2.2-0.3-4.3-0.8-6.5-1.3c-0.4-0.1-0.8-0.2-1.3-0.3c-10.9-2.9-20.9-8.3-29.2-15.4
		l55-63.5h10.2v64.8h30.9v-64.8h27.8v43.9h30.9v-43.9h27.8v64.8H373v-64.8L413.5,281.3L413.5,281.3z"/>
	<path class="st1" d="M412.6,281.3h61.9v81.2h-61.9V281.3z"/>
</g>
</svg>
