<?xml version="1.0" encoding="utf-8"?>
<!-- Generator: Adobe Illustrator 25.3.1, SVG Export Plug-In . SVG Version: 6.00 Build 0)  -->
<svg version="1.1" id="Camada_1" xmlns="http://www.w3.org/2000/svg" xmlns:xlink="http://www.w3.org/1999/xlink" x="0px" y="0px"
	 viewBox="0 0 500 500" style="enable-background:new 0 0 500 500;" xml:space="preserve">
<style type="text/css">
	.st0{fill:url(#SVGID_1_);}
	.st1{fill:#333333;}
	.st2{fill:none;stroke:#333333;stroke-width:10;stroke-linecap:round;stroke-miterlimit:10;}
</style>
<g>
	<linearGradient id="SVGID_1_" gradientUnits="userSpaceOnUse" x1="250" y1="25" x2="250" y2="475">
		<stop  offset="0" style="stop-color:#FFE767"/>
		<stop  offset="1" style="stop-color:#FF8744"/>
	</linearGradient>
	<path class="st0" d="M250,475c124.2,0,225-100.8,225-225S374.2,25,250,25S25,125.8,25,250S125.8,475,250,475z"/>
	<path class="st1" d="M180.5,185.8c11,0,20-9,20-20c0-11-9-20-20-20s-20,9-20,20C160.5,176.8,169.5,185.8,180.5,185.8z"/>
	<path class="st1" d="M319.4,185.8c11,0,20-9,20-20c0-11-9-20-20-20s-20,9-20,20C299.3,176.8,308.3,185.8,319.4,185.8z"/>
	<path class="st2" d="M334.2,253.9c0,46.5-37.7,84.3-84.3,84.3s-84.2-37.7-84.2-84.3"/>
</g>
</svg>
