<?xml version="1.0" encoding="utf-8"?>
<!-- Generator: Adobe Illustrator 25.3.1, SVG Export Plug-In . SVG Version: 6.00 Build 0)  -->
<svg version="1.1" id="Camada_1" xmlns="http://www.w3.org/2000/svg" xmlns:xlink="http://www.w3.org/1999/xlink" x="0px" y="0px"
	 viewBox="0 0 500 500" style="enable-background:new 0 0 500 500;" xml:space="preserve">
<style type="text/css">
	.st0{fill:#3DDCFF;}
	.st1{fill:#FFFFFF;}
</style>
<g>
	<circle class="st0" cx="250" cy="250" r="225"/>
	<path class="st1" d="M227.1,379.6c0,6.1-4.9,11-11,11h-48.5c-24.3,0-44.1-19.7-44.1-43.9V153.2c0-24.2,19.8-43.9,44.1-43.9h135.6
		c24.3,0,44.1,19.7,44.1,43.9v104.9c0,6.1-4.9,11-11,11c-6.1,0-11-4.9-11-11V153.2c0-12.2-9.9-21.9-22.1-21.9H167.8
		c-12.2,0-22.1,9.9-22.1,21.9v193.4c0,12.1,9.9,21.9,22.1,21.9h48.5C222.1,368.7,227.1,373.6,227.1,379.6z M292.2,175.3H178.6
		c-6.1,0-11,4.9-11,10.9c0,6.1,4.9,11,11,11h113.6c6.1,0,11-4.9,11-11C303.1,180.2,298.3,175.3,292.2,175.3z M303.1,230.2
		c0-6.1-4.9-11-11-11H178.5c-6.1,0-11,4.9-11,11c0,6.1,4.9,11,11,11h113.6C298.3,241.2,303.1,236.4,303.1,230.2z M178.6,263.3
		c-6.1,0-11,4.9-11,11c0,6.1,4.9,11,11,11h57.9c6.1,0,11-4.9,11-11c0-6.1-4.9-11-11-11H178.6z M374.6,343.6
		c-0.5,0.6-1.7,2.4-2.5,3.5c-3.6,4.6-12.4,15.5-24.3,25c-15.6,12.4-31.5,18.6-47.2,18.6c-15.9,0-31.7-6.2-47.2-18.4
		c-12.2-9.6-20.7-20.4-24.3-25c-0.9-1-2.1-2.9-2.5-3.5c-2.7-3.8-2.7-8.9,0-12.6c0.4-0.6,1.7-2.4,2.5-3.5c3.6-4.6,12.4-15.5,24.3-25
		c15.5-12.3,31.4-18.5,47.2-18.5s31.7,6.2,47.2,18.5c12.1,9.6,20.7,20.4,24.3,25c0.9,1,2.1,2.9,2.5,3.5
		C377.2,334.8,377.2,339.9,374.6,343.6z M351.5,337.3c-17.5-20.8-34.8-31.4-51.1-31.4s-33.6,10.6-51.1,31.4
		c17.6,20.8,34.8,31.4,51.1,31.4C316.8,368.7,333.9,358.1,351.5,337.3z M301.1,316.5c-11.5,0-20.9,9.2-20.9,20.8
		c0,11.6,9.4,20.8,20.9,20.8c11.5,0,20.9-9.2,20.9-20.8C322,325.7,312.6,316.5,301.1,316.5z"/>
</g>
</svg>
