<?xml version="1.0" encoding="utf-8"?>
<!-- Generator: Adobe Illustrator 26.0.1, SVG Export Plug-In . SVG Version: 6.00 Build 0)  -->
<svg version="1.1" id="Layer_1" xmlns="http://www.w3.org/2000/svg" xmlns:xlink="http://www.w3.org/1999/xlink" x="0px" y="0px"
	 viewBox="0 0 500 500" style="enable-background:new 0 0 500 500;" xml:space="preserve">
<style type="text/css">
	.st0{fill:#5A5A5A;}
</style>
<path class="st0" d="M233.6,358L233.6,358c-10.3,6.5-24.3,5.6-34.6-0.9C179.4,344,151.3,316,150.4,257
	c-0.9-27.1,19.6-51.4,46.8-53.3c11.2-0.9,22.4,2.8,30.9,8.4c13.1,8.4,30.9,8.4,43.9,0c8.4-5.6,19.6-9.4,30.9-8.4
	c27.1,1.9,47.7,26.2,46.8,53.3c-0.9,58.9-29,87.9-48.6,100.1c-10.3,6.5-23.4,6.5-34.6,0.9l0,0C257,352.4,243.9,352.4,233.6,358z
	 M253.3,152.3c-12.2,12.2-16.8,28.1-14,43c15,2.8,30.9-1.9,43-14c12.2-12.2,16.8-28.1,14-43C282.3,135.5,265.4,140.2,253.3,152.3z"
	/>
</svg>
