<?xml version="1.0" encoding="utf-8"?>
<!-- Generator: Adobe Illustrator 25.3.1, SVG Export Plug-In . SVG Version: 6.00 Build 0)  -->
<svg version="1.1" id="Camada_1" xmlns="http://www.w3.org/2000/svg" xmlns:xlink="http://www.w3.org/1999/xlink" x="0px" y="0px"
	 viewBox="0 0 500 500" style="enable-background:new 0 0 500 500;" xml:space="preserve">
<style type="text/css">
	.st0{fill:#5A5A5A;}
</style>
<g>
	<path class="st0" d="M439.1,362.3c-5,0.1-9.8,0.2-14.7,0.2c-28.3,0-56.6,0.1-84.9-0.1c-2.2,0-4.6-0.8-6.4-1.9
		c-14.5-9.4-29-19.1-43.4-28.6c-2-1.3-2.7-2.4-2.1-5c6.1-29-3-53.6-22-75.1c-8.7-9.9-18.9-17.8-30.4-24.5
		c-17.8-10.4-34.4-22.5-47.3-39c-3.3-4.2-6-9-8.7-13.6c-0.6-0.9-0.8-2.6-0.3-3.3c7.9-11.3,16-22.5,24.1-33.8c7.6,5,14.9,9.7,22,14.5
		c1.1,0.8,1.7,2.4,2.2,3.6c5.6,14.2,13.8,26.7,25.6,36.6c21.1,17.7,45,20.5,70.7,12.2c1.5-0.5,3-1.1,4.5-1.6
		c1.5-0.6,2.9-1.1,4.7-1.8c2.6,8.2,5.1,16.1,7.8,24.4c-9.4,3.1-18.8,6.1-28.3,9.2c2.3,7,4.4,13.8,6.7,21c9.4-2.9,18.8-5.9,28.3-8.9
		c2.6,8,5,15.6,7.7,23.7c-8.6,2.9-17,5.6-25.7,8.4c2.3,7,4.4,13.8,6.7,21c8.6-2.8,17-5.5,25.8-8.2c1.6,5,3.3,9.8,4.6,14.6
		c0.7,2.6,1.9,3.4,4.6,3.4c9.1-0.2,18.3-0.3,27.3,0.1c20.4,0.7,36.9,15.1,40.5,35.3c0.2,0.6,0.4,1.1,0.7,1.7
		C439.1,352.1,439.1,357.2,439.1,362.3z"/>
	<path class="st0" d="M60.8,287c22.2,0,44.5,0,66.9,0c0,7.5,0,14.6,0,22.2c-22.4,0-44.7,0-66.9,0C60.8,301.7,60.8,294.3,60.8,287z"
		/>
	<path class="st0" d="M266.6,316.8c-43.7-28.8-87.1-57.2-130.5-85.9c9.1-12.7,18.1-25.4,27.1-37.9c0.5,0.3,0.9,0.4,1.1,0.7
		c14.3,21.4,33.8,37.3,55.5,50.3c12.1,7.3,23.5,15.1,32.4,26.3c10.2,12.8,15.6,27.2,14.6,43.7C266.8,314.8,266.7,315.5,266.6,316.8z
		"/>
	<path class="st0" d="M284.8,362.2c-67.1,0-133.1,0-199.3,0c0-7.2,0-14.2,0-21.4c1.5-0.1,2.9-0.2,4-0.2c52.7,0,105.6,0,158.5,0.1
		c2.4,0,4.8,0.9,6.8,2C264.6,348.9,274.2,355.3,284.8,362.2z"/>
</g>
</svg>
