<?xml version="1.0" encoding="utf-8"?>
<!-- Generator: Adobe Illustrator 25.3.1, SVG Export Plug-In . SVG Version: 6.00 Build 0)  -->
<svg version="1.1" id="Camada_1" xmlns="http://www.w3.org/2000/svg" xmlns:xlink="http://www.w3.org/1999/xlink" x="0px" y="0px"
	 viewBox="0 0 500 500" style="enable-background:new 0 0 500 500;" xml:space="preserve">
<style type="text/css">
	.st0{fill:#FF8744;}
	.st1{fill:#5A5A5A;}
</style>
<g>
	<path class="st0" d="M439,362.3c-5,0.1-9.8,0.2-14.8,0.2c-28.3,0-56.6,0.1-84.9-0.1c-2.2,0-4.6-0.8-6.4-1.9
		c-14.5-9.4-29-19.1-43.4-28.6c-2-1.3-2.7-2.4-2.1-5c6.1-29-3-53.6-22.1-75.1c-8.7-9.9-19-17.8-30.3-24.4
		c-17.8-10.4-34.4-22.5-47.2-39.1c-3.3-4.3-6-9-8.7-13.6c-0.6-0.8-0.8-2.6-0.3-3.4c7.9-11.3,16-22.4,24-33.8
		c7.6,5,14.9,9.7,22.1,14.5c1,0.8,1.7,2.4,2.2,3.6c5.6,14.1,13.7,26.7,25.5,36.5c21.1,17.6,44.9,20.5,70.7,12.3
		c1.5-0.5,3-1.1,4.5-1.6c1.5-0.6,2.9-1.1,4.7-1.8c2.6,8.1,5.1,16,7.8,24.4c-9.4,3.1-18.7,6.1-28.3,9.2c2.2,7,4.4,13.7,6.7,21
		c9.4-2.9,18.7-6,28.3-9c2.5,8,5,15.7,7.6,23.7c-8.6,2.8-17,5.5-25.8,8.4c2.2,6.9,4.4,13.7,6.7,21c8.7-2.7,17-5.5,25.9-8.2
		c1.6,5,3.3,9.8,4.6,14.7c0.7,2.6,1.9,3.4,4.6,3.4c9.1-0.2,18.2-0.3,27.3,0.1c20.4,0.6,36.9,15,40.4,35.4c0.1,0.6,0.4,1.1,0.6,1.7
		C439,352.1,439,357.2,439,362.3z"/>
	<path class="st1" d="M61,287c22.3,0,44.4,0,67,0c0,7.5,0,14.6,0,22.2c-22.3,0-44.7,0-67,0C61,301.8,61,294.3,61,287z"/>
	<path class="st1" d="M266.7,316.9c-43.8-28.8-87-57.2-130.6-85.9c9.1-12.7,18.1-25.3,27.1-37.9c0.5,0.3,0.9,0.3,1,0.7
		c14.2,21.5,33.8,37.2,55.5,50.3c12,7.3,23.5,15.2,32.4,26.4c10.2,12.8,15.6,27.2,14.7,43.7C266.9,314.8,266.9,315.5,266.7,316.9z"
		/>
	<path class="st1" d="M284.9,362.3c-67.1,0-133.1,0-199.3,0c0-7.1,0-14.1,0-21.4c1.5-0.1,2.8-0.2,4.1-0.2c52.8,0,105.6,0,158.4,0.1
		c2.3,0,4.8,0.8,6.8,2C264.7,349,274.4,355.3,284.9,362.3z"/>
</g>
</svg>
