<?xml version="1.0" encoding="utf-8"?>
<!-- Generator: Adobe Illustrator 25.3.1, SVG Export Plug-In . SVG Version: 6.00 Build 0)  -->
<svg version="1.1" id="Camada_1" xmlns="http://www.w3.org/2000/svg" xmlns:xlink="http://www.w3.org/1999/xlink" x="0px" y="0px"
	 viewBox="0 0 500 500" style="enable-background:new 0 0 500 500;" xml:space="preserve">
<style type="text/css">
	.st0{fill:#FF4471;fill-opacity:0.5;}
	.st1{fill:#FF8744;fill-opacity:0.75;}
	.st2{fill:#79E5FD;fill-opacity:0.25;}
	.st3{fill:#505050;}
	.st4{fill:#383838;}
</style>
<g>
	<g>
		<path class="st0" d="M475,173L270.7,290.9V55L475,173z"/>
		<path class="st1" d="M234,165.6l-9.8,235.7L25,275L234,165.6z"/>
		<path class="st2" d="M369,445l-45.7-145.9l149.2,33.4L369,445z"/>
	</g>
	<path class="st3" d="M196.5,322.2h-4.2v-14.7h-16.1v14.7h-4.2v-31.8h4.2v13.7h16.1v-13.7h4.2V322.2z M222,307.5h-13.8v11.2h16.1
		v3.4H204v-31.8h20v3.5h-15.8v10.2H222V307.5z M247.1,313.9h-13.4l-3,8.3h-4.3l12.1-31.8h3.7l12.2,31.8h-4.3L247.1,313.9z
		 M235,310.5h10.8l-5.4-14.9L235,310.5z M262.9,318.8H278v3.4h-19.3v-31.8h4.2V318.8z M298.8,293.9h-10.2v28.3h-4.2v-28.3h-10.2
		v-3.5h24.6V293.9z M327.9,322.2h-4.2v-14.7h-16v14.7h-4.2v-31.8h4.2v13.7h16v-13.7h4.2V322.2z"/>
	<path class="st4" d="M181.5,360.8h-14.6v39.8h-9.8v-39.8h-14.4v-8h38.9L181.5,360.8L181.5,360.8z M204.9,383.1H197v17.5h-9.8v-47.8
		h17.8c5.6,0,10,1.3,13.1,3.8c3.1,2.5,4.6,6.1,4.6,10.6c0,3.2-0.7,6-2.1,8.2c-1.4,2.2-3.5,3.9-6.4,5.2l10.3,19.5v0.5h-10.6
		L204.9,383.1z M197,375.1h7.9c2.5,0,4.4-0.6,5.8-1.9c1.3-1.3,2-3,2-5.2s-0.7-4-2-5.3c-1.3-1.3-3.2-2-5.9-2H197L197,375.1L197,375.1
		z M257,390.8h-17.2l-3.3,9.8H226l17.8-47.8h9.2l17.9,47.8h-10.4L257,390.8z M242.4,382.8h11.9l-6-17.8L242.4,382.8z M312,384.7
		c-0.4,5.2-2.2,9.1-5.7,12.1c-3.4,2.9-8,4.4-13.5,4.4c-6.2,0-11-2-14.5-6.2s-5.2-9.8-5.2-17v-2.9c0-4.6,0.8-8.6,2.4-12.1
		c1.6-3.5,3.9-6.2,6.9-8s6.5-2.8,10.5-2.8c5.5,0,10,1.5,13.4,4.4s5.3,7.1,5.8,12.5h-9.8c-0.2-3.1-1.1-5.3-2.6-6.7
		c-1.5-1.4-3.7-2.1-6.8-2.1c-3.3,0-5.8,1.2-7.4,3.5c-1.6,2.3-2.5,6-2.5,10.9v3.6c0,5.2,0.8,8.9,2.3,11.3c1.6,2.4,4,3.6,7.4,3.6
		c3.1,0,5.3-0.7,6.8-2.1c1.5-1.4,2.4-3.5,2.6-6.5H312z M333.4,381.4l-5.1,5.5v13.7h-9.8v-47.8h9.8v21.8l4.4-5.9l12.1-15.7h12.1
		l-17,21.2l17.5,26.5h-11.7L333.4,381.4z"/>
</g>
</svg>
