<?xml version="1.0" encoding="utf-8"?>
<!-- Generator: Adobe Illustrator 25.3.1, SVG Export Plug-In . SVG Version: 6.00 Build 0)  -->
<svg version="1.1" id="Camada_1" xmlns="http://www.w3.org/2000/svg" xmlns:xlink="http://www.w3.org/1999/xlink" x="0px" y="0px"
	 viewBox="0 0 500 500" style="enable-background:new 0 0 500 500;" xml:space="preserve">
<style type="text/css">
	.st0{fill:#FF8744;}
	.st1{fill:#FFFFFF;}
	.st2{fill:none;stroke:#FFFFFF;stroke-width:10;stroke-linecap:round;stroke-miterlimit:10;}
</style>
<g>
	<path class="st0" d="M250,362.5c62.1,0,112.5-50.4,112.5-112.5S312.1,137.5,250,137.5S137.5,187.9,137.5,250S187.9,362.5,250,362.5
		z"/>
	<path class="st1" d="M215.2,217.9c5.6,0,10-4.5,10-10c0-5.5-4.5-10-10-10c-5.6,0-10,4.5-10,10S209.8,217.9,215.2,217.9z"/>
	<path class="st1" d="M284.7,217.9c5.5,0,10-4.5,10-10c0-5.5-4.5-10-10-10c-5.6,0-10,4.5-10,10C274.6,213.4,279.1,217.9,284.7,217.9
		z"/>
	<path class="st2" d="M292.1,251.9c0,23.3-18.9,42.2-42.1,42.2c-23.2,0-42.1-18.9-42.1-42.1"/>
</g>
</svg>
