<?xml version="1.0" encoding="utf-8"?>
<!-- Generator: Adobe Illustrator 25.3.1, SVG Export Plug-In . SVG Version: 6.00 Build 0)  -->
<svg version="1.1" id="Camada_1" xmlns="http://www.w3.org/2000/svg" xmlns:xlink="http://www.w3.org/1999/xlink" x="0px" y="0px"
	 viewBox="0 0 500 500" style="enable-background:new 0 0 500 500;" xml:space="preserve">
<style type="text/css">
	.st0{fill:#5E5E5E;}
	.st1{fill:#FFFFFF;}
	.st2{fill:none;stroke:#FFFFFF;stroke-width:10;stroke-linecap:round;stroke-miterlimit:10;}
</style>
<g>
	<path class="st0" d="M250,362.5c62.1,0,112.5-50.4,112.5-112.5S312.1,137.5,250,137.5S137.5,187.9,137.5,250S187.9,362.5,250,362.5
		z"/>
	<path class="st1" d="M215.4,230c5.5,0,10-4.5,10-10.1s-4.5-10.1-10-10.1c-5.6,0-10.1,4.5-10.1,10.1
		C205.3,225.5,209.8,230,215.4,230z"/>
	<path class="st1" d="M284.7,230c5.5,0,10-4.5,10-10.1s-4.5-10.1-10-10.1c-5.6,0-10.1,4.5-10.1,10.1
		C274.7,225.5,279.2,230,284.7,230z"/>
	<path class="st2" d="M292.1,264.1c0,23.2-18.9,42.1-42.1,42.1s-42.1-18.9-42.1-42.1"/>
</g>
</svg>
