<?xml version="1.0" encoding="utf-8"?>
<!-- Generator: Adobe Illustrator 26.0.1, SVG Export Plug-In . SVG Version: 6.00 Build 0)  -->
<svg version="1.1" id="Camada_1" xmlns="http://www.w3.org/2000/svg" xmlns:xlink="http://www.w3.org/1999/xlink" x="0px" y="0px"
	 viewBox="0 0 512 512" style="enable-background:new 0 0 512 512;" xml:space="preserve">
<style type="text/css">
	.st0{fill:#5A5A5A;}
</style>
<g id="Heart_rate">
	<path class="st0" d="M315.3,254.5l-11.4,25.3c-2.1,4.6-7.5,6.7-12.2,4.6c-2.1-0.9-3.7-2.6-4.6-4.6l-19.2-42.7l-5.4,12
		c-1.5,3.3-4.8,5.4-8.4,5.4H139.9c2.4,3.5,5.1,6.7,8,9.7l101.6,101.6c3.6,3.6,9.4,3.6,13,0c0,0,0,0,0,0l101.6-101.6
		c3-3,5.6-6.2,8-9.7H315.3z"/>
	<path class="st0" d="M248.1,236.1l11.4-25.3c2.1-4.6,7.5-6.7,12.2-4.6c2.1,0.9,3.7,2.6,4.6,4.6l19.2,42.7l5.4-12
		c1.5-3.3,4.8-5.4,8.4-5.4h71.9c8.5-25.9,1.5-54.4-18.2-73.3c-28.2-27.2-73.6-25.1-101.2,2.6l-5.9,5.9l-5.9-5.9
		c-27.7-27.7-73.1-29.8-101.2-2.6c-19.6,18.9-26.7,47.4-18.2,73.3H248.1z"/>
</g>
</svg>
